<svg xmlns="http://www.w3.org/2000/svg" version="1.1" xmlns:xlink="http://www.w3.org/1999/xlink" xmlns:svgjs="http://svgjs.dev/svgjs" viewBox="0 0 800 800"><defs><linearGradient gradientTransform="rotate(270)" x1="50%" y1="0%" x2="50%" y2="100%" id="sssquiggly-grad"><stop stop-color="hsl(265, 55%, 30%)" stop-opacity="1" offset="0%"></stop><stop stop-color="hsl(265, 55%, 60%)" stop-opacity="1" offset="100%"></stop></linearGradient></defs><g stroke-width="2" stroke="url(#sssquiggly-grad)" fill="none" stroke-linecap="round" transform="matrix(1,0,0,1,0,-44.01537322998047)"><path d="M10,10C21.805555555555557,15.833333333333334,40.97222222222223,45.083333333333336,66.66666666666667,38C92.36111111111111,30.916666666666664,105.55555555555557,-23.791666666666668,133.33333333333334,-24C161.11111111111111,-24.208333333333332,172.22222222222223,34.291666666666664,200,37C227.77777777777777,39.708333333333336,238.8888888888889,-10.791666666666666,266.6666666666667,-11C294.44444444444446,-11.208333333333334,305.5555555555556,38.708333333333336,333.33333333333337,36C361.11111111111114,33.291666666666664,372.22222222222223,-26.916666666666668,400,-24C427.77777777777777,-21.083333333333332,438.8888888888889,46.25,466.6666666666667,50C494.44444444444446,53.75,505.5555555555556,-6.416666666666667,533.3333333333334,-6C561.1111111111111,-5.583333333333333,572.2222222222222,49.083333333333336,600,52C627.7777777777778,54.916666666666664,638.8888888888889,9.041666666666666,666.6666666666667,8C694.4444444444446,6.958333333333333,707.6388888888889,46.583333333333336,733.3333333333334,47C759.0277777777778,47.416666666666664,778.1944444444445,17.708333333333336,790,10"></path><path d="M10,10C21.805555555555557,15.833333333333334,40.97222222222223,45.083333333333336,66.66666666666667,38C92.36111111111111,30.916666666666664,105.55555555555557,-23.791666666666668,133.33333333333334,-24C161.11111111111111,-24.208333333333332,172.22222222222223,34.291666666666664,200,37C227.77777777777777,39.708333333333336,238.8888888888889,-10.791666666666666,266.6666666666667,-11C294.44444444444446,-11.208333333333334,305.5555555555556,38.708333333333336,333.33333333333337,36C361.11111111111114,33.291666666666664,372.22222222222223,-26.916666666666668,400,-24C427.77777777777777,-21.083333333333332,438.8888888888889,46.25,466.6666666666667,50C494.44444444444446,53.75,505.5555555555556,-6.416666666666667,533.3333333333334,-6C561.1111111111111,-5.583333333333333,572.2222222222222,49.083333333333336,600,52C627.7777777777778,54.916666666666664,638.8888888888889,9.041666666666666,666.6666666666667,8C694.4444444444446,6.958333333333333,707.6388888888889,46.583333333333336,733.3333333333334,47C759.0277777777778,47.416666666666664,778.1944444444445,17.708333333333336,790,10" transform="matrix(1,0,0,1,0,860)"></path><path d="M10,10C21.805555555555557,15.833333333333334,40.97222222222223,45.083333333333336,66.66666666666667,38C92.36111111111111,30.916666666666664,105.55555555555557,-23.791666666666668,133.33333333333334,-24C161.11111111111111,-24.208333333333332,172.22222222222223,34.291666666666664,200,37C227.77777777777777,39.708333333333336,238.8888888888889,-10.791666666666666,266.6666666666667,-11C294.44444444444446,-11.208333333333334,305.5555555555556,38.708333333333336,333.33333333333337,36C361.11111111111114,33.291666666666664,372.22222222222223,-26.916666666666668,400,-24C427.77777777777777,-21.083333333333332,438.8888888888889,46.25,466.6666666666667,50C494.44444444444446,53.75,505.5555555555556,-6.416666666666667,533.3333333333334,-6C561.1111111111111,-5.583333333333333,572.2222222222222,49.083333333333336,600,52C627.7777777777778,54.916666666666664,638.8888888888889,9.041666666666666,666.6666666666667,8C694.4444444444446,6.958333333333333,707.6388888888889,46.583333333333336,733.3333333333334,47C759.0277777777778,47.416666666666664,778.1944444444445,17.708333333333336,790,10" transform="matrix(1,0,0,1,0,817)"></path><path d="M10,10C21.805555555555557,15.833333333333334,40.97222222222223,45.083333333333336,66.66666666666667,38C92.36111111111111,30.916666666666664,105.55555555555557,-23.791666666666668,133.33333333333334,-24C161.11111111111111,-24.208333333333332,172.22222222222223,34.291666666666664,200,37C227.77777777777777,39.708333333333336,238.8888888888889,-10.791666666666666,266.6666666666667,-11C294.44444444444446,-11.208333333333334,305.5555555555556,38.708333333333336,333.33333333333337,36C361.11111111111114,33.291666666666664,372.22222222222223,-26.916666666666668,400,-24C427.77777777777777,-21.083333333333332,438.8888888888889,46.25,466.6666666666667,50C494.44444444444446,53.75,505.5555555555556,-6.416666666666667,533.3333333333334,-6C561.1111111111111,-5.583333333333333,572.2222222222222,49.083333333333336,600,52C627.7777777777778,54.916666666666664,638.8888888888889,9.041666666666666,666.6666666666667,8C694.4444444444446,6.958333333333333,707.6388888888889,46.583333333333336,733.3333333333334,47C759.0277777777778,47.416666666666664,778.1944444444445,17.708333333333336,790,10" transform="matrix(1,0,0,1,0,774)"></path><path d="M10,10C21.805555555555557,15.833333333333334,40.97222222222223,45.083333333333336,66.66666666666667,38C92.36111111111111,30.916666666666664,105.55555555555557,-23.791666666666668,133.33333333333334,-24C161.11111111111111,-24.208333333333332,172.22222222222223,34.291666666666664,200,37C227.77777777777777,39.708333333333336,238.8888888888889,-10.791666666666666,266.6666666666667,-11C294.44444444444446,-11.208333333333334,305.5555555555556,38.708333333333336,333.33333333333337,36C361.11111111111114,33.291666666666664,372.22222222222223,-26.916666666666668,400,-24C427.77777777777777,-21.083333333333332,438.8888888888889,46.25,466.6666666666667,50C494.44444444444446,53.75,505.5555555555556,-6.416666666666667,533.3333333333334,-6C561.1111111111111,-5.583333333333333,572.2222222222222,49.083333333333336,600,52C627.7777777777778,54.916666666666664,638.8888888888889,9.041666666666666,666.6666666666667,8C694.4444444444446,6.958333333333333,707.6388888888889,46.583333333333336,733.3333333333334,47C759.0277777777778,47.416666666666664,778.1944444444445,17.708333333333336,790,10" transform="matrix(1,0,0,1,0,731)"></path><path d="M10,10C21.805555555555557,15.833333333333334,40.97222222222223,45.083333333333336,66.66666666666667,38C92.36111111111111,30.916666666666664,105.55555555555557,-23.791666666666668,133.33333333333334,-24C161.11111111111111,-24.208333333333332,172.22222222222223,34.291666666666664,200,37C227.77777777777777,39.708333333333336,238.8888888888889,-10.791666666666666,266.6666666666667,-11C294.44444444444446,-11.208333333333334,305.5555555555556,38.708333333333336,333.33333333333337,36C361.11111111111114,33.291666666666664,372.22222222222223,-26.916666666666668,400,-24C427.77777777777777,-21.083333333333332,438.8888888888889,46.25,466.6666666666667,50C494.44444444444446,53.75,505.5555555555556,-6.416666666666667,533.3333333333334,-6C561.1111111111111,-5.583333333333333,572.2222222222222,49.083333333333336,600,52C627.7777777777778,54.916666666666664,638.8888888888889,9.041666666666666,666.6666666666667,8C694.4444444444446,6.958333333333333,707.6388888888889,46.583333333333336,733.3333333333334,47C759.0277777777778,47.416666666666664,778.1944444444445,17.708333333333336,790,10" transform="matrix(1,0,0,1,0,688)"></path><path d="M10,10C21.805555555555557,15.833333333333334,40.97222222222223,45.083333333333336,66.66666666666667,38C92.36111111111111,30.916666666666664,105.55555555555557,-23.791666666666668,133.33333333333334,-24C161.11111111111111,-24.208333333333332,172.22222222222223,34.291666666666664,200,37C227.77777777777777,39.708333333333336,238.8888888888889,-10.791666666666666,266.6666666666667,-11C294.44444444444446,-11.208333333333334,305.5555555555556,38.708333333333336,333.33333333333337,36C361.11111111111114,33.291666666666664,372.22222222222223,-26.916666666666668,400,-24C427.77777777777777,-21.083333333333332,438.8888888888889,46.25,466.6666666666667,50C494.44444444444446,53.75,505.5555555555556,-6.416666666666667,533.3333333333334,-6C561.1111111111111,-5.583333333333333,572.2222222222222,49.083333333333336,600,52C627.7777777777778,54.916666666666664,638.8888888888889,9.041666666666666,666.6666666666667,8C694.4444444444446,6.958333333333333,707.6388888888889,46.583333333333336,733.3333333333334,47C759.0277777777778,47.416666666666664,778.1944444444445,17.708333333333336,790,10" transform="matrix(1,0,0,1,0,645)"></path><path d="M10,10C21.805555555555557,15.833333333333334,40.97222222222223,45.083333333333336,66.66666666666667,38C92.36111111111111,30.916666666666664,105.55555555555557,-23.791666666666668,133.33333333333334,-24C161.11111111111111,-24.208333333333332,172.22222222222223,34.291666666666664,200,37C227.77777777777777,39.708333333333336,238.8888888888889,-10.791666666666666,266.6666666666667,-11C294.44444444444446,-11.208333333333334,305.5555555555556,38.708333333333336,333.33333333333337,36C361.11111111111114,33.291666666666664,372.22222222222223,-26.916666666666668,400,-24C427.77777777777777,-21.083333333333332,438.8888888888889,46.25,466.6666666666667,50C494.44444444444446,53.75,505.5555555555556,-6.416666666666667,533.3333333333334,-6C561.1111111111111,-5.583333333333333,572.2222222222222,49.083333333333336,600,52C627.7777777777778,54.916666666666664,638.8888888888889,9.041666666666666,666.6666666666667,8C694.4444444444446,6.958333333333333,707.6388888888889,46.583333333333336,733.3333333333334,47C759.0277777777778,47.416666666666664,778.1944444444445,17.708333333333336,790,10" transform="matrix(1,0,0,1,0,602)"></path><path d="M10,10C21.805555555555557,15.833333333333334,40.97222222222223,45.083333333333336,66.66666666666667,38C92.36111111111111,30.916666666666664,105.55555555555557,-23.791666666666668,133.33333333333334,-24C161.11111111111111,-24.208333333333332,172.22222222222223,34.291666666666664,200,37C227.77777777777777,39.708333333333336,238.8888888888889,-10.791666666666666,266.6666666666667,-11C294.44444444444446,-11.208333333333334,305.5555555555556,38.708333333333336,333.33333333333337,36C361.11111111111114,33.291666666666664,372.22222222222223,-26.916666666666668,400,-24C427.77777777777777,-21.083333333333332,438.8888888888889,46.25,466.6666666666667,50C494.44444444444446,53.75,505.5555555555556,-6.416666666666667,533.3333333333334,-6C561.1111111111111,-5.583333333333333,572.2222222222222,49.083333333333336,600,52C627.7777777777778,54.916666666666664,638.8888888888889,9.041666666666666,666.6666666666667,8C694.4444444444446,6.958333333333333,707.6388888888889,46.583333333333336,733.3333333333334,47C759.0277777777778,47.416666666666664,778.1944444444445,17.708333333333336,790,10" transform="matrix(1,0,0,1,0,559)"></path><path d="M10,10C21.805555555555557,15.833333333333334,40.97222222222223,45.083333333333336,66.66666666666667,38C92.36111111111111,30.916666666666664,105.55555555555557,-23.791666666666668,133.33333333333334,-24C161.11111111111111,-24.208333333333332,172.22222222222223,34.291666666666664,200,37C227.77777777777777,39.708333333333336,238.8888888888889,-10.791666666666666,266.6666666666667,-11C294.44444444444446,-11.208333333333334,305.5555555555556,38.708333333333336,333.33333333333337,36C361.11111111111114,33.291666666666664,372.22222222222223,-26.916666666666668,400,-24C427.77777777777777,-21.083333333333332,438.8888888888889,46.25,466.6666666666667,50C494.44444444444446,53.75,505.5555555555556,-6.416666666666667,533.3333333333334,-6C561.1111111111111,-5.583333333333333,572.2222222222222,49.083333333333336,600,52C627.7777777777778,54.916666666666664,638.8888888888889,9.041666666666666,666.6666666666667,8C694.4444444444446,6.958333333333333,707.6388888888889,46.583333333333336,733.3333333333334,47C759.0277777777778,47.416666666666664,778.1944444444445,17.708333333333336,790,10" transform="matrix(1,0,0,1,0,516)"></path><path d="M10,10C21.805555555555557,15.833333333333334,40.97222222222223,45.083333333333336,66.66666666666667,38C92.36111111111111,30.916666666666664,105.55555555555557,-23.791666666666668,133.33333333333334,-24C161.11111111111111,-24.208333333333332,172.22222222222223,34.291666666666664,200,37C227.77777777777777,39.708333333333336,238.8888888888889,-10.791666666666666,266.6666666666667,-11C294.44444444444446,-11.208333333333334,305.5555555555556,38.708333333333336,333.33333333333337,36C361.11111111111114,33.291666666666664,372.22222222222223,-26.916666666666668,400,-24C427.77777777777777,-21.083333333333332,438.8888888888889,46.25,466.6666666666667,50C494.44444444444446,53.75,505.5555555555556,-6.416666666666667,533.3333333333334,-6C561.1111111111111,-5.583333333333333,572.2222222222222,49.083333333333336,600,52C627.7777777777778,54.916666666666664,638.8888888888889,9.041666666666666,666.6666666666667,8C694.4444444444446,6.958333333333333,707.6388888888889,46.583333333333336,733.3333333333334,47C759.0277777777778,47.416666666666664,778.1944444444445,17.708333333333336,790,10" transform="matrix(1,0,0,1,0,473)"></path><path d="M10,10C21.805555555555557,15.833333333333334,40.97222222222223,45.083333333333336,66.66666666666667,38C92.36111111111111,30.916666666666664,105.55555555555557,-23.791666666666668,133.33333333333334,-24C161.11111111111111,-24.208333333333332,172.22222222222223,34.291666666666664,200,37C227.77777777777777,39.708333333333336,238.8888888888889,-10.791666666666666,266.6666666666667,-11C294.44444444444446,-11.208333333333334,305.5555555555556,38.708333333333336,333.33333333333337,36C361.11111111111114,33.291666666666664,372.22222222222223,-26.916666666666668,400,-24C427.77777777777777,-21.083333333333332,438.8888888888889,46.25,466.6666666666667,50C494.44444444444446,53.75,505.5555555555556,-6.416666666666667,533.3333333333334,-6C561.1111111111111,-5.583333333333333,572.2222222222222,49.083333333333336,600,52C627.7777777777778,54.916666666666664,638.8888888888889,9.041666666666666,666.6666666666667,8C694.4444444444446,6.958333333333333,707.6388888888889,46.583333333333336,733.3333333333334,47C759.0277777777778,47.416666666666664,778.1944444444445,17.708333333333336,790,10" transform="matrix(1,0,0,1,0,430)"></path><path d="M10,10C21.805555555555557,15.833333333333334,40.97222222222223,45.083333333333336,66.66666666666667,38C92.36111111111111,30.916666666666664,105.55555555555557,-23.791666666666668,133.33333333333334,-24C161.11111111111111,-24.208333333333332,172.22222222222223,34.291666666666664,200,37C227.77777777777777,39.708333333333336,238.8888888888889,-10.791666666666666,266.6666666666667,-11C294.44444444444446,-11.208333333333334,305.5555555555556,38.708333333333336,333.33333333333337,36C361.11111111111114,33.291666666666664,372.22222222222223,-26.916666666666668,400,-24C427.77777777777777,-21.083333333333332,438.8888888888889,46.25,466.6666666666667,50C494.44444444444446,53.75,505.5555555555556,-6.416666666666667,533.3333333333334,-6C561.1111111111111,-5.583333333333333,572.2222222222222,49.083333333333336,600,52C627.7777777777778,54.916666666666664,638.8888888888889,9.041666666666666,666.6666666666667,8C694.4444444444446,6.958333333333333,707.6388888888889,46.583333333333336,733.3333333333334,47C759.0277777777778,47.416666666666664,778.1944444444445,17.708333333333336,790,10" transform="matrix(1,0,0,1,0,387)"></path><path d="M10,10C21.805555555555557,15.833333333333334,40.97222222222223,45.083333333333336,66.66666666666667,38C92.36111111111111,30.916666666666664,105.55555555555557,-23.791666666666668,133.33333333333334,-24C161.11111111111111,-24.208333333333332,172.22222222222223,34.291666666666664,200,37C227.77777777777777,39.708333333333336,238.8888888888889,-10.791666666666666,266.6666666666667,-11C294.44444444444446,-11.208333333333334,305.5555555555556,38.708333333333336,333.33333333333337,36C361.11111111111114,33.291666666666664,372.22222222222223,-26.916666666666668,400,-24C427.77777777777777,-21.083333333333332,438.8888888888889,46.25,466.6666666666667,50C494.44444444444446,53.75,505.5555555555556,-6.416666666666667,533.3333333333334,-6C561.1111111111111,-5.583333333333333,572.2222222222222,49.083333333333336,600,52C627.7777777777778,54.916666666666664,638.8888888888889,9.041666666666666,666.6666666666667,8C694.4444444444446,6.958333333333333,707.6388888888889,46.583333333333336,733.3333333333334,47C759.0277777777778,47.416666666666664,778.1944444444445,17.708333333333336,790,10" transform="matrix(1,0,0,1,0,344)"></path><path d="M10,10C21.805555555555557,15.833333333333334,40.97222222222223,45.083333333333336,66.66666666666667,38C92.36111111111111,30.916666666666664,105.55555555555557,-23.791666666666668,133.33333333333334,-24C161.11111111111111,-24.208333333333332,172.22222222222223,34.291666666666664,200,37C227.77777777777777,39.708333333333336,238.8888888888889,-10.791666666666666,266.6666666666667,-11C294.44444444444446,-11.208333333333334,305.5555555555556,38.708333333333336,333.33333333333337,36C361.11111111111114,33.291666666666664,372.22222222222223,-26.916666666666668,400,-24C427.77777777777777,-21.083333333333332,438.8888888888889,46.25,466.6666666666667,50C494.44444444444446,53.75,505.5555555555556,-6.416666666666667,533.3333333333334,-6C561.1111111111111,-5.583333333333333,572.2222222222222,49.083333333333336,600,52C627.7777777777778,54.916666666666664,638.8888888888889,9.041666666666666,666.6666666666667,8C694.4444444444446,6.958333333333333,707.6388888888889,46.583333333333336,733.3333333333334,47C759.0277777777778,47.416666666666664,778.1944444444445,17.708333333333336,790,10" transform="matrix(1,0,0,1,0,301)"></path><path d="M10,10C21.805555555555557,15.833333333333334,40.97222222222223,45.083333333333336,66.66666666666667,38C92.36111111111111,30.916666666666664,105.55555555555557,-23.791666666666668,133.33333333333334,-24C161.11111111111111,-24.208333333333332,172.22222222222223,34.291666666666664,200,37C227.77777777777777,39.708333333333336,238.8888888888889,-10.791666666666666,266.6666666666667,-11C294.44444444444446,-11.208333333333334,305.5555555555556,38.708333333333336,333.33333333333337,36C361.11111111111114,33.291666666666664,372.22222222222223,-26.916666666666668,400,-24C427.77777777777777,-21.083333333333332,438.8888888888889,46.25,466.6666666666667,50C494.44444444444446,53.75,505.5555555555556,-6.416666666666667,533.3333333333334,-6C561.1111111111111,-5.583333333333333,572.2222222222222,49.083333333333336,600,52C627.7777777777778,54.916666666666664,638.8888888888889,9.041666666666666,666.6666666666667,8C694.4444444444446,6.958333333333333,707.6388888888889,46.583333333333336,733.3333333333334,47C759.0277777777778,47.416666666666664,778.1944444444445,17.708333333333336,790,10" transform="matrix(1,0,0,1,0,258)"></path><path d="M10,10C21.805555555555557,15.833333333333334,40.97222222222223,45.083333333333336,66.66666666666667,38C92.36111111111111,30.916666666666664,105.55555555555557,-23.791666666666668,133.33333333333334,-24C161.11111111111111,-24.208333333333332,172.22222222222223,34.291666666666664,200,37C227.77777777777777,39.708333333333336,238.8888888888889,-10.791666666666666,266.6666666666667,-11C294.44444444444446,-11.208333333333334,305.5555555555556,38.708333333333336,333.33333333333337,36C361.11111111111114,33.291666666666664,372.22222222222223,-26.916666666666668,400,-24C427.77777777777777,-21.083333333333332,438.8888888888889,46.25,466.6666666666667,50C494.44444444444446,53.75,505.5555555555556,-6.416666666666667,533.3333333333334,-6C561.1111111111111,-5.583333333333333,572.2222222222222,49.083333333333336,600,52C627.7777777777778,54.916666666666664,638.8888888888889,9.041666666666666,666.6666666666667,8C694.4444444444446,6.958333333333333,707.6388888888889,46.583333333333336,733.3333333333334,47C759.0277777777778,47.416666666666664,778.1944444444445,17.708333333333336,790,10" transform="matrix(1,0,0,1,0,215)"></path><path d="M10,10C21.805555555555557,15.833333333333334,40.97222222222223,45.083333333333336,66.66666666666667,38C92.36111111111111,30.916666666666664,105.55555555555557,-23.791666666666668,133.33333333333334,-24C161.11111111111111,-24.208333333333332,172.22222222222223,34.291666666666664,200,37C227.77777777777777,39.708333333333336,238.8888888888889,-10.791666666666666,266.6666666666667,-11C294.44444444444446,-11.208333333333334,305.5555555555556,38.708333333333336,333.33333333333337,36C361.11111111111114,33.291666666666664,372.22222222222223,-26.916666666666668,400,-24C427.77777777777777,-21.083333333333332,438.8888888888889,46.25,466.6666666666667,50C494.44444444444446,53.75,505.5555555555556,-6.416666666666667,533.3333333333334,-6C561.1111111111111,-5.583333333333333,572.2222222222222,49.083333333333336,600,52C627.7777777777778,54.916666666666664,638.8888888888889,9.041666666666666,666.6666666666667,8C694.4444444444446,6.958333333333333,707.6388888888889,46.583333333333336,733.3333333333334,47C759.0277777777778,47.416666666666664,778.1944444444445,17.708333333333336,790,10" transform="matrix(1,0,0,1,0,172)"></path><path d="M10,10C21.805555555555557,15.833333333333334,40.97222222222223,45.083333333333336,66.66666666666667,38C92.36111111111111,30.916666666666664,105.55555555555557,-23.791666666666668,133.33333333333334,-24C161.11111111111111,-24.208333333333332,172.22222222222223,34.291666666666664,200,37C227.77777777777777,39.708333333333336,238.8888888888889,-10.791666666666666,266.6666666666667,-11C294.44444444444446,-11.208333333333334,305.5555555555556,38.708333333333336,333.33333333333337,36C361.11111111111114,33.291666666666664,372.22222222222223,-26.916666666666668,400,-24C427.77777777777777,-21.083333333333332,438.8888888888889,46.25,466.6666666666667,50C494.44444444444446,53.75,505.5555555555556,-6.416666666666667,533.3333333333334,-6C561.1111111111111,-5.583333333333333,572.2222222222222,49.083333333333336,600,52C627.7777777777778,54.916666666666664,638.8888888888889,9.041666666666666,666.6666666666667,8C694.4444444444446,6.958333333333333,707.6388888888889,46.583333333333336,733.3333333333334,47C759.0277777777778,47.416666666666664,778.1944444444445,17.708333333333336,790,10" transform="matrix(1,0,0,1,0,129)"></path><path d="M10,10C21.805555555555557,15.833333333333334,40.97222222222223,45.083333333333336,66.66666666666667,38C92.36111111111111,30.916666666666664,105.55555555555557,-23.791666666666668,133.33333333333334,-24C161.11111111111111,-24.208333333333332,172.22222222222223,34.291666666666664,200,37C227.77777777777777,39.708333333333336,238.8888888888889,-10.791666666666666,266.6666666666667,-11C294.44444444444446,-11.208333333333334,305.5555555555556,38.708333333333336,333.33333333333337,36C361.11111111111114,33.291666666666664,372.22222222222223,-26.916666666666668,400,-24C427.77777777777777,-21.083333333333332,438.8888888888889,46.25,466.6666666666667,50C494.44444444444446,53.75,505.5555555555556,-6.416666666666667,533.3333333333334,-6C561.1111111111111,-5.583333333333333,572.2222222222222,49.083333333333336,600,52C627.7777777777778,54.916666666666664,638.8888888888889,9.041666666666666,666.6666666666667,8C694.4444444444446,6.958333333333333,707.6388888888889,46.583333333333336,733.3333333333334,47C759.0277777777778,47.416666666666664,778.1944444444445,17.708333333333336,790,10" transform="matrix(1,0,0,1,0,86)"></path><path d="M10,10C21.805555555555557,15.833333333333334,40.97222222222223,45.083333333333336,66.66666666666667,38C92.36111111111111,30.916666666666664,105.55555555555557,-23.791666666666668,133.33333333333334,-24C161.11111111111111,-24.208333333333332,172.22222222222223,34.291666666666664,200,37C227.77777777777777,39.708333333333336,238.8888888888889,-10.791666666666666,266.6666666666667,-11C294.44444444444446,-11.208333333333334,305.5555555555556,38.708333333333336,333.33333333333337,36C361.11111111111114,33.291666666666664,372.22222222222223,-26.916666666666668,400,-24C427.77777777777777,-21.083333333333332,438.8888888888889,46.25,466.6666666666667,50C494.44444444444446,53.75,505.5555555555556,-6.416666666666667,533.3333333333334,-6C561.1111111111111,-5.583333333333333,572.2222222222222,49.083333333333336,600,52C627.7777777777778,54.916666666666664,638.8888888888889,9.041666666666666,666.6666666666667,8C694.4444444444446,6.958333333333333,707.6388888888889,46.583333333333336,733.3333333333334,47C759.0277777777778,47.416666666666664,778.1944444444445,17.708333333333336,790,10" transform="matrix(1,0,0,1,0,43)"></path></g></svg>