<svg xmlns="http://www.w3.org/2000/svg" version="1.1" xmlns:xlink="http://www.w3.org/1999/xlink" xmlns:svgjs="http://svgjs.dev/svgjs" viewBox="0 0 800 800"><defs><linearGradient x1="50%" y1="0%" x2="50%" y2="100%" id="uundulate-grad"><stop stop-color="hsl(37, 99%, 67%)" stop-opacity="1" offset="45%"></stop><stop stop-color="hsl(316, 73%, 52%)" stop-opacity="1" offset="100%"></stop></linearGradient></defs><g stroke-width="2" stroke="url(#uundulate-grad)" fill="none"><path d="M1359.3483845231362 205.09817188924558C1381.6570335342367 411.15020095119314 825.7529964543428 789.849952668796 536.0563990857311 905.7026587658779C246.35980171711935 1021.55536486296 194.01200219066686 963.7070378852466 -31.195282846197642 761.1911611552405C-256.40256788306215 558.6752844252342 -640.8073538159373 109.57191752158064 -544.9385690912195 -66.373549538151C-449.0697843665016 -242.31901659788264 32.248435162791566 -139.90368936217715 428.97488383244854 -83.34708073146987C825.7013325021053 -26.7904721007626 1337.0397355120358 -0.9538571727021008 1359.3483845231362 205.09817188924558C1381.6570335342367 411.15020095119314 825.7529964543428 789.849952668796 536.0563990857311 905.7026587658779 "></path><path d="M1329.3688066345958 211.18885020300945C1350.9803103640993 410.8017533567711 812.4482744429522 777.6671378331989 531.8046957421097 889.8994468647472C251.16111704126706 1002.1317558962953 200.44918625001628 946.0911891366354 -17.720371129446335 749.9039335544419C-235.88992850890884 553.7166779722484 -608.2820648813816 118.64779128433406 -515.4091796793113 -51.799379929781026C-422.5362944772408 -222.2465511438961 43.740730691761996 -123.03170288430636 428.06947784049225 -68.24248827330871C812.3982249892222 -13.453273662311062 1307.7573029050923 11.575947049247588 1329.3688066345958 211.18885020300945C1350.9803103640993 410.8017533567711 812.4482744429522 777.6671378331989 531.8046957421097 889.8994468647472 "></path><path d="M1299.3889846054303 217.2795285167732C1320.303343053337 410.45330576234903 799.1433082909364 765.4843229976018 527.5527482578632 874.0962349636161C255.96218822478977 982.7081469296306 206.88612616874025 928.475340388024 -4.245703553320027 738.6167059536433C-215.37753327538053 548.7580715192626 -575.757020087451 127.72366504708748 -485.880034408028 -37.225210321411055C-396.003048728605 -202.17408568990953 55.23278208010731 -106.15971640643556 427.1638277079105 -53.137895815147544C799.094873335714 -0.11607522385952507 1278.4746261575237 24.105751271197278 1299.3889846054303 217.2795285167732C1320.303343053337 410.45330576234903 799.1433082909364 765.4843229976018 527.5527482578632 874.0962349636161 "></path><path d="M1269.409437234468 223.3702373481151C1289.626650400778 410.1048886855052 785.8386167971241 753.3015386795828 523.3010754318198 858.2930535800633C260.7635340665154 963.2845684805441 213.3233407456678 910.859522156991 9.229238681009292 727.3295088704231C-194.8648633836491 543.799495583855 -543.2317006353172 136.7995693274188 -456.3506144785417 -22.65101019546296C-369.4695283217661 -182.10158971834483 66.72510812665587 -89.2876994109867 426.25845223353235 -38.033272839408255C785.7917963404091 13.221153732170194 1249.1922240681588 36.63558601072509 1269.409437234468 223.3702373481151C1289.626650400778 410.1048886855052 785.8386167971241 753.3015386795828 523.3010754318198 858.2930535800633 "></path><path d="M1239.4297677931936 229.46091566187897C1258.9498356779063 409.75644109108305 772.5338032329992 741.1187238439857 519.0492805354638 842.4898416789324C265.5647578379287 943.8609595138794 219.76043325228284 893.2436734083799 22.70405884502634 716.0422812696245C-174.35231556223016 538.8408891308691 -510.70650325349595 145.8754430901722 -426.8213166193678 -8.076840587093045C-342.93612998523963 -162.02912426435825 78.21731210289181 -72.41571293311591 425.3529546888417 -22.92868038124709C772.4885972747913 26.558352170621788 1219.9096999084807 49.16539023267478 1239.4297677931936 229.46091566187897C1258.9498356779063 409.75644109108305 772.5338032329992 741.1187238439857 519.0492805354638 842.4898416789324 "></path><path d="M1209.4502509398094 235.55159397564285C1228.2731735429252 409.407993496661 759.2291422567646 728.9359090083885 514.7976382269985 826.6866297778015C270.36613419723267 924.4373505472145 226.19767834678828 875.6278246597685 36.17903159693378 704.7550536688259C-153.8396151529206 533.8822826778833 -478.181153283784 154.95131685292552 -397.29186617230334 6.497329021276926C-316.40257906082263 -141.95665881037166 89.70966866701849 -55.54372645524512 424.44760973204166 -7.824087923085926C759.1855507970645 39.895550609073325 1190.6273283366934 61.69519445462447 1209.4502509398094 235.55159397564285C1228.2731735429252 409.407993496661 759.2291422567646 728.9359090083885 514.7976382269985 826.6866297778015 "></path><path d="M1179.4705814985346 241.6422722894065C1197.5963588200536 409.05954590223905 745.9243286926398 716.7530941727914 510.5458433306428 810.8834178766706C275.1673579686458 905.0137415805498 232.6347708534032 858.0119759111576 49.65385176095083 693.4678260680275C-133.32706733150167 528.9236762248975 -445.6559559019627 164.02719061567882 -367.76256831312946 21.07149862964684C-289.8691807242962 -121.88419335638514 101.20187264325455 -38.671739977374386 423.54211218735077 7.280504535075238C745.882351731447 53.23274904752492 1161.3448041770152 74.22499867657416 1179.4705814985346 241.6422722894065C1197.5963588200536 409.05954590223905 745.9243286926398 716.7530941727914 510.5458433306428 810.8834178766706 "></path><path d="M1149.4910341275724 247.73295060317037C1166.9196661674944 408.711098307817 732.6196371988274 704.5702793371943 506.2941705045996 795.0802059755397C279.9687038103716 885.5901326138849 239.07198543033064 840.3961271625462 63.12879399528015 682.180598467229C-112.81439743977023 523.9650697719115 -413.13063644982896 173.10306437843224 -338.23314838364314 35.64566823801681C-263.33566031745727 -101.81172790239856 112.69419868980299 -21.799753499503595 422.6367367129724 22.38509699323646C732.579274736142 66.56994748597646 1132.06240208765 86.75480289852379 1149.4910341275724 247.73295060317037C1166.9196661674944 408.711098307817 732.6196371988274 704.5702793371943 506.2941705045996 795.0802059755397 "></path><path d="M1119.5112731335632 253.8236899520905C1136.2427598918885 408.3627117485512 719.314732081968 692.3875255367534 502.0422840555093 779.277055109565C284.76983602905057 866.1665846823764 245.50898638421108 822.7803394490913 76.60352260656282 670.8934319015866C-92.30194117108567 519.006524354082 -380.60553062074206 182.1789991763418 -308.70394207720364 50.21989888154303C-236.80235353366527 -81.73920141325573 124.18631111330455 -4.92770598647661 421.73114761554734 37.48975048655387C719.2759841177901 79.9072069595843 1102.7797863752378 99.28466815562973 1119.5112731335632 253.8236899520905C1136.2427598918885 408.3627117485512 719.314732081968 692.3875255367534 502.0422840555093 779.277055109565 "></path><path d="M1089.5316342098665 259.914307230698C1105.5659756865948 408.0142031189729 706.0099490354212 680.204649666 497.7905196767315 763.4737821732776C289.5710903180419 846.7429146805555 251.94610940840414 805.164429665324 90.07837328815776 659.606143265632C-71.78936283208861 514.0478568659399 -348.08030272134266 191.25481190393884 -279.1746137004517 64.79400745475675C-210.2689246795607 -61.666796994425454 135.67854560711874 11.944219456237931 420.8256805884348 52.59428190955879C705.9728155697508 93.24434436287959 1073.4972927331382 111.81441134242317 1089.5316342098665 259.914307230698C1105.5659756865948 408.0142031189729 706.0099490354212 680.204649666 497.7905196767315 763.4737821732776 "></path><path d="M1059.5520868389042 266.005046579618C1074.8892830340358 407.6658165597071 692.7052575416087 668.0218958655589 493.53884685068806 747.6706313073028C294.37243615976763 827.3193667490468 258.3833239853316 787.5486419518688 103.55331552248708 648.3189766999895C-51.27669294035718 509.08931144811027 -315.55498326920883 200.3307467018485 -249.6451937709653 79.36823809828292C-183.73540427272178 -41.59427050528262 147.1708716536673 28.816266969264973 419.9203051140562 67.6989354028762C692.6697385744455 106.58160383648743 1044.2148906437726 124.34427659952905 1059.5520868389042 266.005046579618C1074.8892830340358 407.6658165597071 692.7052575416087 668.0218958655589 493.53884685068806 747.6706313073028 "></path><path d="M1029.572356362473 272.0957248933819C1044.2124072760078 407.3173689652849 679.4003829423275 655.8390810299618 489.2869909191761 731.8674194061718C299.1735988960247 807.8957577823821 264.82035545679014 769.9327932032575 117.02807465134788 637.0317490991911C-30.764206154094495 504.13070499512446 -283.0298469225438 209.40662046460182 -220.11595694694773 93.94240770665289C-157.20206697135166 -21.52180505129604 158.66301459474698 45.68825344713571 419.0147465342094 82.80352786103737C679.3664784736718 119.91880227493897 1014.9323054489387 136.87408082147874 1029.572356362473 272.0957248933819C1044.2124072760078 407.3173689652849 679.4003829423275 655.8390810299618 489.2869909191761 731.8674194061718 "></path><path d="M999.5926869211985 278.18640320714564C1013.5355925531362 406.968921370863 666.0955693782025 643.6562661943648 485.0351960228202 716.0642075050409C303.97482266743793 788.4721488157174 271.2574479634052 752.3169444546465 130.5028948153647 625.7445214983925C-10.25165833267556 499.17209854213866 -250.50464954072254 218.48249422735512 -190.58665908777385 108.5165773150228C-130.66866863482522 -1.4493395973094607 170.15521857098304 62.5602399250065 418.1092489895186 97.90812031919853C666.0632794080543 133.25600071339056 985.6497812892608 149.40388504342843 999.5926869211985 278.18640320714564C1013.5355925531362 406.968921370863 666.0955693782025 643.6562661943648 485.0351960228202 716.0642075050409 "></path><path d="M969.6131700678143 284.2770510033314C982.8589304181551 406.6204432588627 652.7909084019682 631.4734208411895 480.783553714355 700.260965086332C308.7761990267418 769.0485093314744 277.6946930579106 734.701065188457 143.97786756727237 614.4572633800159C10.261042076633998 494.2134615715747 -217.97929957101064 227.5583374725304 -161.0572086407094 123.09071640581465C-104.13511771040817 18.623095339098995 181.6475751351096 79.43219588529911 417.20390403271847 113.01268225978157C652.7602329303272 146.59316863426398 956.3674097174735 161.9336587478 969.6131700678143 284.2770510033314C982.8589304181551 406.6204432588627 652.7909084019682 631.4734208411895 480.783553714355 700.260965086332 "></path><path d="M939.6335006265394 290.3677598346733C952.1821156952835 406.27202618201886 639.4860948378432 619.2906365231705 476.53175881799916 684.4577837027791C313.5774227981551 749.6249308823878 284.13178556452544 717.0852469574239 157.4526877312892 603.1700662967954C30.773589898052933 489.25488563616705 -185.45410218918937 236.63424175286184 -131.52791078153552 137.66491653176274C-77.60171937388174 38.695591310663644 193.13977911134566 96.30421288074803 416.2984064880277 128.11730523552086C639.4570338647097 159.9303975902937 927.0848855577956 174.46349348732775 939.6335006265394 290.3677598346733C952.1821156952835 406.27202618201886 639.4860948378432 619.2906365231705 476.53175881799916 684.4577837027791 "></path><path d="M909.6539532555773 296.458407630859C921.5054230427243 405.9235480700187 626.1814033440305 607.1077911699953 472.28008599195573 668.6545412840701C318.37876863988083 730.2012913981449 290.569000141453 699.4693676912345 170.92762996561862 591.8828081784188C51.28625978978437 484.2962486656031 -152.9287827370556 245.71008499803702 -101.9984908520492 152.2390556225546C-51.06819896704286 58.7680262470721 204.6321051578941 113.17616884104069 415.3930310136494 143.2218671761039C626.1539568694047 173.26756551116716 897.8024834684302 186.99326719169932 909.6539532555773 296.458407630859C921.5054230427243 405.9235480700187 626.1814033440305 607.1077911699953 472.28008599195573 668.6545412840701 "></path><path d="M879.6741922615681 302.5490859446228C890.8285167671183 405.5751004755966 612.8764982271714 594.924976334398 468.02819954286554 652.851329382939C323.1799008585597 710.77768243148 297.00600109533343 681.8535189426233 184.40235857690118 580.5955805776202C71.79871605846893 479.3376422126171 -120.40367690796865 254.78595876079032 -72.46928454560975 166.8132252309245C-24.534892183250804 78.84049170105868 216.12421758139578 130.04815531891143 414.48744191622427 158.32645963426506C612.8506662510526 186.6047639496187 868.5198677560179 199.52307141364895 879.6741922615681 302.5490859446228C890.8285167671183 405.5751004755966 612.8764982271714 594.924976334398 468.02819954286554 652.851329382939 "></path><path d="M849.6945533378714 308.6397947759647C860.1517325618247 405.2266833987526 599.5717151806244 582.742192016379 463.77643516408784 637.0481479993862C327.98115514755114 691.3541039823934 303.4431241195264 664.2377007115902 197.87720925849624 569.3083834943998C92.31129439746599 474.3790662772094 -87.87844900856925 263.86186304112186 -42.93995616885775 181.3874253568726C1.9985366708537526 98.91298767262339 227.61645207520996 146.92017231436034 413.5819748891115 173.43108261000435C599.5474977030133 199.94199290564836 839.2373741139181 212.05290615317676 849.6945533378714 308.6397947759647C860.1517325618247 405.2266833987526 599.5717151806244 582.742192016379 463.77643516408784 637.0481479993862 "></path><path d="M819.7148533790187 314.7304425721504C829.474887321375 404.8782052867525 586.2668710989215 570.5593466632038 459.5246097501538 621.2449055806771C332.78234840138623 671.9304644981506 309.8801861085633 646.6218214454009 211.35199890493504 558.0211253760232C112.8238117013068 469.4204293066455 -55.3532821443261 272.93770628629704 -13.41068882726205 195.96156444766444C28.53190448980206 118.98542260903179 239.10862553386778 163.792128274653 412.6764468268427 188.5356445505874C586.2442681198175 213.27916082652183 809.9548194366621 224.58267985754833 819.7148533790187 314.7304425721504C829.474887321375 404.8782052867525 586.2668710989215 570.5593466632038 459.5246097501538 621.2449055806771 "></path><path d="M789.7353060080563 320.8211514034923C798.798194668816 404.5297882099086 572.962179605109 558.3765623451848 455.27293692411047 605.4417241971244C337.58369424311195 652.506886049064 316.3174006854906 629.0060032143679 224.82694113926448 546.7339282928028C133.33648159303823 464.4618533712378 -22.82796269219233 282.0136105666285 16.11873110222433 210.53576457361248C55.065424896640934 139.0579185805965 250.60095158041634 180.66414527010187 411.77107135246445 203.64026752632668C572.9411911245126 226.61638978255155 780.6724173472967 237.11251459707614 789.7353060080563 320.8211514034923C798.798194668816 404.5297882099086 572.962179605109 558.3765623451848 455.27293692411047 605.4417241971244 "></path><path d="M759.7556976019378 326.9118297172562C768.1214409811005 404.18134061548653 559.6574270761403 546.1937475095876 451.0212030629109 589.6385122959935C342.38497904968153 633.0832770823991 322.7545542272618 611.3901544657566 238.30182233843766 535.4467006920042C153.8490904496134 459.503246918252 9.69729572478525 291.08948432938183 45.648089996554404 225.10993418198245C81.59888426832362 159.13038403458307 262.0932165918085 197.53613174797266 410.8656348429299 218.74485998448785C559.6380530940513 239.9535882210031 751.389954222775 249.64231881902583 759.7556976019378 326.9118297172562C768.1214409811005 404.18134061548653 559.6574270761403 546.1937475095876 451.0212030629109 589.6385122959935 "></path><path d="M729.7759671255068 333.00250803101994C737.4445652230726 403.8328930210645 546.352552476859 534.0109326739904 446.7693471313987 573.8353003948623C347.1861417859385 613.6596681157343 329.1915856987205 593.7743057171454 251.77658146729823 524.1594730912057C174.3615772358761 454.54464046526607 42.22243207145027 300.1653580921352 75.17732682057203 239.68410379035242C108.1322215696938 179.20284948856965 273.58535953288833 214.4081182258434 409.9600762630828 233.849452442649C546.3347929932775 253.29078665945462 722.107369027941 262.17212304097546 729.7759671255068 333.00250803101994C737.4445652230726 403.8328930210645 546.352552476859 534.0109326739904 446.7693471313987 573.8353003948623 "></path><path d="M699.7964197545446 339.0931710859947C706.7678725705134 403.48443016785336 533.0478609830466 521.8281025796043 442.5176743053554 558.0320732349423C351.9874876276642 594.2360438902806 335.6288002756479 576.1584417097451 265.25152370162766 512.8722302316181C194.87424712760753 449.5860187534912 74.74775152358404 309.24121659609943 104.70674675005836 254.25825813993328C134.66574197653273 199.27529968376712 285.0776855794368 231.28008944492512 409.0547007887046 248.9540296420211C533.0317159979725 266.62796983911716 692.8249669385757 274.7019120041361 699.7964197545446 339.0931710859947C706.7678725705134 403.48443016785336 533.0478609830466 521.8281025796043 442.5176743053554 558.0320732349423 "></path><path d="M669.8167503132697 345.1838493997585C676.0910578476418 403.1359825734313 519.7430474189216 509.6452877440072 438.2658794089996 542.2288613338114C356.78871139907756 574.8124349236158 342.0658927822627 558.5425929611338 278.7263438656446 501.58500263081964C215.38679494902647 444.6274123005054 107.27294890540531 318.3170903588528 134.23604460923224 268.83242774830325C161.1991403130591 219.3477651377537 296.56988955567283 248.15207592279592 408.14920324401385 264.05862210018233C519.7285169323549 279.9651682775687 663.5424427788978 287.2317162260858 669.8167503132697 345.1838493997585C676.0910578476418 403.1359825734313 519.7430474189216 509.6452877440072 438.2658794089996 542.2288613338114 "></path><path d="M639.8371571659403 351.27455823110046C645.4143194187154 402.7875654965874 506.43831014874195 497.4625034259881 434.01416080658896 526.4256799502585C361.5900114644361 555.3888564745291 348.50306158282297 540.9267747301008 292.20124032360684 490.2978055475992C235.8994190643907 439.6688363650976 139.7982225811719 327.3929946391842 163.76541876235137 283.40662787425134C187.73261494353085 239.4202611093184 308.06216982585414 265.0240929182448 407.2437819932684 279.1632450759216C506.4253941606826 293.3023972335984 634.2599949131652 299.76155096561354 639.8371571659403 351.27455823110046C645.4143194187154 402.7875654965874 506.43831014874195 497.4625034259881 434.01416080658896 526.4256799502585 "></path><path d="M609.8574419482984 357.3652365448643C614.7374589194766 402.4391179021653 493.1334508082498 485.27968859039095 429.76232013386596 510.62246804912763C366.3911894594821 535.9652475078644 354.9401083130707 523.3109259814895 305.6760147112566 479.0105779468006C256.41192110944246 434.7102299121118 172.32337418662604 336.4688684019376 193.29467084515807 297.98079748262126C214.2659675036901 259.492726563305 319.55432802572295 281.89607939611557 406.3382386722104 294.2678375340828C493.1221493186979 306.63959567204995 604.9774249771201 312.2913551875632 609.8574419482984 357.3652365448643C614.7374589194766 402.4391179021653 493.1334508082498 485.27968859039095 429.76232013386596 510.62246804912763 "></path><path d="M579.8778335421798 363.4559148586281C584.0607052317612 402.09067030774327 479.82869827928107 473.0968737547938 425.5105862726664 494.8192561479967C371.1924742660517 516.5416385411995 361.37726185484183 505.69507723287825 319.15089591042977 467.7233503460021C276.92452996601764 429.751623459126 204.84863260360356 345.54474216469094 222.82402973948814 312.5549670909912C240.79942687537277 279.5651920172915 331.0465930371152 298.7680658739863 405.4328021626759 309.37242999224395C479.81901128823665 319.97679411050154 575.6949618525985 324.8211594095129 579.8778335421798 363.4559148586281C584.0607052317612 402.09067030774327 479.82869827928107 473.0968737547938 425.5105862726664 494.8192561479967 "></path><path d="M549.8981946184832 369.5465931723919C553.3839210264676 401.7422227133212 466.5239152327342 460.9140589191967 421.2588218938886 479.0160442468657C375.99372855504305 497.11802957453483 367.8143848790349 488.0792284842671 332.62574659202477 456.4361227452036C297.4371083050147 424.79301700614013 237.37386050300296 354.62061592744425 252.35335811624014 327.1291366993612C267.3328557294773 299.6376574712781 342.5388275309293 315.6400523518571 404.52733513556325 324.4770224504051C466.5158427401972 333.31399254895314 546.4124682104988 337.35096363146255 549.8981946184832 369.5465931723919C553.3839210264676 401.7422227133212 466.5239152327342 460.9140589191967 421.2588218938886 479.0160442468657 "></path><path d="M519.9185251772085 375.63727148615567C522.707106303596 401.39377511889916 453.21910166860926 448.7312440835995 417.00702699753276 463.21283234573474C380.7949523264563 477.69442060787003 374.25147738564976 470.46337973565585 346.1005667560417 445.14889514440506C317.94965612643364 419.83441055315427 269.89905788482423 363.6964896901976 281.88265597541397 341.7033063077311C293.8662540660037 319.71012292526467 354.0310315071654 332.5120388297279 403.6218375908725 339.5816149085663C453.21264367457957 346.6511909874047 517.1299440508209 349.88076785341224 519.9185251772085 375.63727148615567C522.707106303596 401.39377511889916 453.21910166860926 448.7312440835995 417.00702699753276 463.21283234573474 "></path><path d="M489.9389167710899 381.7279650587086C492.0303526158806 401.04534278326616 439.91434913964054 436.54844450679144 412.7552931363332 447.4096357033929C385.59623713302585 458.2708268999943 380.68863092742095 452.84754624583366 359.5754479552149 433.8616828023956C338.4622649830088 414.87581935895753 302.42431630180175 372.77237871174 311.4120148697441 356.27749117489014C320.3997134376864 339.7826036380403 365.52329651855763 349.3840405663877 402.71640108133795 354.6862226255165C439.9095056441183 359.9884046846453 487.8474809262992 362.410587334151 489.9389167710899 381.7279650587086C492.0303526158806 401.04534278326616 439.91434913964054 436.54844450679144 412.7552931363332 447.4096357033929 "></path><path d="M459.95926258860425 387.8186281136833C461.353553151798 400.69687993005505 426.6095508343046 424.3656144124052 408.5035134987664 431.60640854347287C390.3974761632282 438.8472026745405 387.1257386928249 435.2316822384334 373.0502833780208 422.574439942808C358.9748280632168 409.9171976471826 334.94952894241214 381.8482372157043 340.941327987707 370.85164552447105C346.9331270330019 359.8550538332378 377.0155157535827 366.2560117854694 401.81091879543624 369.7907998248886C426.6063218372898 373.3255878643078 458.56497202541044 374.9403762973116 459.95926258860425 387.8186281136833C461.353553151798 400.69687993005505 426.6095508343046 424.3656144124052 408.5035134987664 431.60640854347287 "></path><path d="M429.97963892369665 393.9093216862362C430.67678420529353 400.34844759442205 413.30478304654685 412.1828148355971 404.25176437877775 415.80321190113096C395.1987457110086 419.42360896666474 393.56287697580694 417.6158487486112 386.52514931840494 411.28722760079853C379.48742166100294 404.9586064529858 367.4747721006006 390.92412623724664 370.47067162324805 385.42583039163003C373.46657114589544 379.9275345460134 388.5077655061859 383.1280135221292 400.90546702711265 384.89540754183884C413.3031685480394 386.6628015615484 429.2824936420998 387.4701957780503 429.97963892369665 393.9093216862362C430.67678420529353 400.34844759442205 413.30478304654685 412.1828148355971 404.25176437877775 415.80321190113096 "></path></g></svg>